# File created by Blade
# Date/Time:  Tue Sep 30 19:07:45 2014
#---------------------------------------------------------
:version 1.10
:name HOM
:units
  mass 1.0
  length 1.000000
  angle deg
:documentation
     Acclaim Skeleton File
:root
   axis xyz
   order TX TY TZ RX RY RZ
   position 0.000000 0.000000 0.000000
   orientation 0 0 0
:bonedata
   begin
      id 1
      name Spine_dum
      direction 0.000000 1.000000 0.000000
      length 7.508948
      axis 0.0 0.0 0.0 xyz
   end
   begin
      id 2
      name LeftUpLeg_dum
      direction 1.000000 0.000000 0.000000
      length 3.000560
      axis 0.0 0.0 0.0 xyz
   end
   begin
      id 3
      name RightUpLeg_dum
      direction -1.000000 0.000000 0.000000
      length 3.000560
      axis 0.0 0.0 0.0 xyz
   end
   begin
      id 4
      name Spine
      direction 0.000000 1.000000 0.000000
      length 0.000000
      axis 0.0 0.0 0.0 xyz
      dof rx ry rz
   end
   begin
      id 5
      name Spine_dum1
      direction 0.000000 1.000000 0.000000
      length 13.861154
      axis 0.0 0.0 0.0 xyz
   end
   begin
      id 6
      name Spine_dum2
      direction 0.000000 1.000000 0.000000
      length 8.204781
      axis 0.0 0.0 0.0 xyz
   end
   begin
      id 7
      name Spine_dum3
      direction 0.000000 1.000000 0.000000
      length 8.204781
      axis 0.0 0.0 0.0 xyz
   end
   begin
      id 8
      name Head
      direction 0.000000 1.000000 0.000000
      length 4.527550
      axis 0.0 0.0 0.0 xyz
      dof rx ry rz
   end
   begin
      id 9
      name LeftShoulder
      direction 1.000000 0.000000 0.000000
      length 6.635956
      axis 0.0 0.0 -90.0 xyz
      dof rx ry rz
   end
   begin
      id 10
      name LeftArm
      direction 1.000000 0.000000 0.000000
      length 10.274218
      axis 0.0 0.0 -90.0 xyz
      dof rx ry rz
   end
   begin
      id 11
      name LeftForeArm
      direction 1.000000 0.000000 0.000000
      length 8.522147
      axis 0.0 0.0 -90.0 xyz
      dof ry rz rx
   end
   begin
      id 12
      name LeftHand
      direction 0.000000 0.000000 0.000000
      length 0.000000
      axis 0.0 0.0 -90.0 xyz
      dof rx ry rz
   end
   begin
      id 13
      name LeftHand_dum1
      direction 0.000000 0.000000 0.000000
      length 0.000000
      axis 0.0 0.0 -90.0 xyz
   end
   begin
      id 14
      name LeftHand_dum2
      direction 1.000000 0.000000 0.000000
      length 3.937000
      axis 0.0 0.0 -90.0 xyz
   end
   begin
      id 15
      name LeftHandThumb1
      direction 0.000000 0.000000 1.000000
      length 3.937000
      axis 0.0 0.0 -90.0 xyz
      dof rx rz ry
   end
   begin
      id 16
      name RightShoulder
      direction -1.000000 0.000000 0.000000
      length 6.635956
      axis 0.0 0.0 90.0 xyz
      dof rx ry rz
   end
   begin
      id 17
      name RightArm
      direction -1.000000 0.000000 0.000000
      length 10.274218
      axis 0.0 0.0 90.0 xyz
      dof rx ry rz
   end
   begin
      id 18
      name RightForeArm
      direction -1.000000 0.000000 0.000000
      length 8.522147
      axis 0.0 0.0 90.0 xyz
      dof ry rz rx
   end
   begin
      id 19
      name RightHand
      direction 0.000000 0.000000 0.000000
      length 0.000000
      axis 0.0 0.0 90.0 xyz
      dof rx ry rz
   end
   begin
      id 20
      name RightHand_dum1
      direction 0.000000 0.000000 0.000000
      length 0.000000
      axis 0.0 0.0 90.0 xyz
   end
   begin
      id 21
      name RightHand_dum2
      direction -1.000000 0.000000 0.000000
      length 3.937000
      axis 0.0 0.0 90.0 xyz
   end
   begin
      id 22
      name RightHandThumb1
      direction 0.000000 0.000000 1.000000
      length 3.937000
      axis 0.0 0.0 90.0 xyz
      dof rx rz ry
   end
   begin
      id 23
      name LeftUpLeg
      direction 0.000000 -1.000000 0.000000
      length 16.490845
      axis 0.0 0.0 0.0 xyz
      dof rx ry rz
   end
   begin
      id 24
      name LeftLeg
      direction 0.000000 -1.000000 0.000000
      length 14.556576
      axis 0.0 0.0 0.0 xyz
      dof rx ry rz
   end
   begin
      id 25
      name LeftFoot
      direction 0.000000 -0.258819 0.965926
      length 4.831116
      axis 15.0 0.0 0.0 xyz
      dof rx ry rz
   end
   begin
      id 26
      name LeftToeBase
      direction 0.000000 0.000000 1.000000
      length 2.952750
      axis 0.0 0.0 0.0 xyz
      dof rx ry rz
   end
   begin
      id 27
      name RightUpLeg
      direction 0.000000 -1.000000 0.000000
      length 16.490845
      axis 0.0 0.0 0.0 xyz
      dof rx ry rz
   end
   begin
      id 28
      name RightLeg
      direction 0.000000 -1.000000 0.000000
      length 14.556576
      axis 0.0 0.0 0.0 xyz
      dof rx ry rz
   end
   begin
      id 29
      name RightFoot
      direction 0.000000 -0.258819 0.965926
      length 4.831116
      axis 15.0 0.0 0.0 xyz
      dof rx ry rz
   end
   begin
      id 30
      name RightToeBase
      direction 0.000000 0.000000 1.000000
      length 2.952750
      axis 0.0 0.0 0.0 xyz
      dof rx ry rz
   end
:hierarchy
   begin
      root Spine_dum LeftUpLeg_dum RightUpLeg_dum
      Spine_dum Spine
      LeftUpLeg_dum LeftUpLeg
      RightUpLeg_dum RightUpLeg
      Spine Spine_dum1 Spine_dum2 Spine_dum3
      Spine_dum1 Head
      Spine_dum2 LeftShoulder
      Spine_dum3 RightShoulder
      LeftShoulder LeftArm
      LeftArm LeftForeArm
      LeftForeArm LeftHand
      LeftHand LeftHand_dum1 LeftHand_dum2
      LeftHand_dum1 LeftHandThumb1
      RightShoulder RightArm
      RightArm RightForeArm
      RightForeArm RightHand
      RightHand RightHand_dum1 RightHand_dum2
      RightHand_dum1 RightHandThumb1
      LeftUpLeg LeftLeg
      LeftLeg LeftFoot
      LeftFoot LeftToeBase
      RightUpLeg RightLeg
      RightLeg RightFoot
      RightFoot RightToeBase
   end

# File created by Blade
# Date/Time:  Thu Sep 25 19:36:54 2014
# Frame Rate: 120.000 fps
#------------------------------------------------------
:FULLY-SPECIFIED
:DEGREES
1
root -3.014000 32.738611 2.905544 11.351304 3.317332 -0.975207
Spine -12.374084 4.525317 -0.464551
Head -16.704711 -3.229652 12.585825
LeftShoulder -14.421699 18.263775 29.165167
LeftArm 16.664949 -24.475102 -27.578148
LeftForeArm 10.281094 -0.000000 12.531885
LeftHand -26.247802 -0.000000 -8.652233
LeftHandThumb1 -26.253704 0.000000 33.147579
RightShoulder -21.060719 11.408243 -40.642172
RightArm -8.671727 7.488698 28.965369
RightForeArm -29.926028 -0.000000 14.322184
RightHand -12.137018 -0.000000 6.432879
RightHandThumb1 -24.326973 -0.000000 -32.862282
LeftUpLeg -5.389757 0.870517 1.590208
LeftLeg -0.397835 -0.000000 0.000000
LeftFoot -11.460971 3.106745 -15.724941
LeftToeBase 8.997794 -0.000000 -0.000000
RightUpLeg -7.173189 -5.151490 0.316208
RightLeg 2.956153 -0.000000 -0.000000
RightFoot -10.010741 -8.387879 2.073084
RightToeBase -0.581823 -0.000000 0.000000
2
root -3.013942 32.738769 2.904795 11.340564 3.318443 -0.971535
Spine -12.371039 4.515883 -0.471010
Head -16.715446 -3.209308 12.590928
LeftShoulder -14.420564 18.267178 29.167389
LeftArm 16.660058 -24.492480 -27.603331
LeftForeArm 10.312916 -0.000000 12.538858
LeftHand -26.254562 -0.000000 -8.721049
LeftHandThumb1 -26.253704 0.000000 33.147579
RightShoulder -21.048958 11.406679 -40.613138
RightArm -8.664331 7.542833 28.941275
RightForeArm -29.993378 -0.000000 14.337093
RightHand -12.157509 -0.000000 6.460025
RightHandThumb1 -24.326973 -0.000000 -32.862282
LeftUpLeg -5.393936 0.873807 1.583479
LeftLeg -0.367462 -0.000000 0.000000
LeftFoot -11.472418 3.110758 -15.708699
LeftToeBase 8.977647 -0.000000 -0.000000
RightUpLeg -7.166342 -5.164283 0.314628
RightLeg 2.953011 -0.000000 -0.000000
RightFoot -9.988686 -8.357090 2.018793
RightToeBase -0.579277 -0.000000 0.000000
3
root -3.013482 32.738512 2.904399 11.324878 3.326379 -0.967704
Spine -12.358411 4.505691 -0.477707
Head -16.746032 -3.195351 12.595875
LeftShoulder -14.420997 18.264001 29.161062
LeftArm 16.656117 -24.487489 -27.603208
LeftForeArm 10.322174 -0.000000 12.536217
LeftHand -26.198098 -0.000000 -8.800679
LeftHandThumb1 -26.253704 0.000000 33.147579
RightShoulder -21.042632 11.383892 -40.607290
RightArm -8.650944 7.542570 28.956301
RightForeArm -29.968923 -0.000000 14.322095
RightHand -12.118334 0.000000 6.425700
RightHandThumb1 -24.326973 -0.000000 -32.862282
LeftUpLeg -5.385124 0.853717 1.581777
LeftLeg -0.356233 -0.000000 0.000000
LeftFoot -11.490016 3.128584 -15.689530
LeftToeBase 9.009692 -0.000000 -0.000000
RightUpLeg -7.151665 -5.182895 0.310377
RightLeg 2.956728 -0.000000 -0.000000
RightFoot -9.998171 -8.328568 2.040063
RightToeBase -0.611641 -0.000000 0.000000
4
root -3.013007 32.738490 2.902948 11.320186 3.327177 -0.967275
Spine -12.354214 4.514057 -0.482093
Head -16.784350 -3.173571 12.604034
LeftShoulder -14.419008 18.267914 29.163356
LeftArm 16.668203 -24.506951 -27.635028
LeftForeArm 10.324876 -0.000000 12.546865
LeftHand -26.171270 0.000000 -8.880706
LeftHandThumb1 -26.253704 0.000000 33.147579
RightShoulder -21.044010 11.395614 -40.644030
RightArm -8.714165 7.580529 29.003715
RightForeArm -30.028434 -0.000000 14.453310
RightHand -12.553699 -0.000000 6.284758
RightHandThumb1 -24.326973 -0.000000 -32.862282
LeftUpLeg -5.393399 0.858848 1.578990
LeftLeg -0.334712 -0.000000 0.000000
LeftFoot -11.493084 3.129007 -15.678678
LeftToeBase 8.972866 -0.000000 -0.000000
RightUpLeg -7.152425 -5.175288 0.308657
RightLeg 2.965259 -0.000000 -0.000000
RightFoot -10.036311 -8.311151 2.114544
RightToeBase -0.488285 -0.000000 0.000000
5
root -3.012586 32.738579 2.902328 11.306812 3.330253 -0.962641
Spine -12.348623 4.516146 -0.486411
Head -16.788305 -3.177132 12.599129
LeftShoulder -14.413008 18.273473 29.158595
LeftArm 16.682659 -24.479202 -27.640353
LeftForeArm 10.305480 -0.000000 12.526199
LeftHand -26.156426 -0.000000 -8.871690
LeftHandThumb1 -26.253704 0.000000 33.147579
RightShoulder -21.045362 11.395145 -40.621797
RightArm -8.670111 7.529241 28.968266
RightForeArm -29.961350 -0.000000 14.341010
RightHand -12.127098 -0.000000 6.411600
RightHandThumb1 -24.326973 -0.000000 -32.862282
LeftUpLeg -5.380939 0.838535 1.574982
LeftLeg -0.334679 -0.000000 0.000000
LeftFoot -11.499462 3.154684 -15.656680
LeftToeBase 8.973926 -0.000000 -0.000000
RightUpLeg -7.139977 -5.180431 0.301823
RightLeg 2.965941 -0.000000 -0.000000
RightFoot -10.034941 -8.307050 2.092271
RightToeBase -0.483459 -0.000000 0.000000
